<?xml version="1.0" encoding="UTF-8"?>
<svg xmlns="http://www.w3.org/2000/svg" viewBox="0 0 512 512">
  <rect x="8" y="8" width="496" height="496" rx="72" ry="72"
        fill="#F8F1E8" stroke="#A84A28" stroke-width="8"/>
  <g transform="translate(256 256)">
    <circle r="105" fill="#FDB515"/>
    <g stroke="#A84A28" stroke-width="16" stroke-linecap="round">
      <line x1="0" y1="-185" x2="0" y2="-145"/>
      <line x1="0" y1="145" x2="0" y2="185"/>
      <line x1="-185" y1="0" x2="-145" y2="0"/>
      <line x1="145" y1="0" x2="185" y2="0"/>
      <line x1="-131" y1="-131" x2="-103" y2="-103"/>
      <line x1="103" y1="103" x2="131" y2="131"/>
      <line x1="131" y1="-131" x2="103" y2="-103"/>
      <line x1="-103" y1="103" x2="-131" y2="131"/>
    </g>
    <g fill="#A84A28">
      <polygon points="0,-220 -16,-150 16,-150"/>
      <polygon points="0,220 -16,150 16,150"/>
      <polygon points="-220,0 -150,-16 -150,16"/>
      <polygon points="220,0 150,-16 150,16"/>
      <polygon points="-155,-155 -105,-125 -125,-105"/>
      <polygon points="155,-155 125,-105 105,-125"/>
      <polygon points="-155,155 -125,105 -105,125"/>
      <polygon points="155,155 105,125 125,105"/>
    </g>
  </g>
</svg>
